{
    "asset" : {
        "generator" : "Khronos glTF Blender I/O v1.8.19",
        "version" : "2.0"
    },
    "extensionsUsed" : [
        "KHR_lights_punctual"
    ],
    "extensionsRequired" : [
        "KHR_lights_punctual"
    ],
    "extensions" : {
        "KHR_lights_punctual" : {
            "lights" : [
                {
                    "color" : [
                        1,
                        1,
                        1
                    ],
                    "intensity" : 1000,
                    "type" : "point",
                    "name" : "Light"
                }
            ]
        }
    },
    "scene" : 0,
    "scenes" : [
        {
            "name" : "Scene",
            "nodes" : [
                0,
                2,
                3
            ]
        }
    ],
    "nodes" : [
        {
            "name" : "Node_1",
            "rotation" : [
                -0.7071068286895752,
                0,
                0,
                0.7071068286895752
            ]
        },
        {
            "extensions" : {
                "KHR_lights_punctual" : {
                    "light" : 0
                }
            },
            "name" : "Light_Orientation",
            "rotation" : [
                -0.7071067690849304,
                0,
                0,
                0.7071067690849304
            ]
        },
        {
            "children" : [
                1
            ],
            "name" : "Light"
        },
        {
            "mesh" : 0,
            "name" : "obj_0.003",
            "rotation" : [
                0.7071068286895752,
                0,
                0,
                0.7071067094802856
            ],
            "translation" : [
                400,
                150,
                -150
            ]
        }
    ],
    "materials" : [
        {
            "doubleSided" : true,
            "name" : "color_2829873.003",
            "pbrMetallicRoughness" : {
                "baseColorFactor" : [
                    0.16862745583057404,
                    0.18039216101169586,
                    0.1921568661928177,
                    1
                ],
                "metallicFactor" : 0
            }
        },
        {
            "doubleSided" : true,
            "name" : "color_4634441.003",
            "pbrMetallicRoughness" : {
                "baseColorFactor" : [
                    0.27450981736183167,
                    0.7176470756530762,
                    0.2862745225429535,
                    1
                ],
                "metallicFactor" : 0
            }
        },
        {
            "doubleSided" : true,
            "name" : "color_11107152.003",
            "pbrMetallicRoughness" : {
                "baseColorFactor" : [
                    0.6627451181411743,
                    0.48235294222831726,
                    0.3137255012989044,
                    1
                ],
                "metallicFactor" : 0
            }
        },
        {
            "doubleSided" : true,
            "emissiveFactor" : [
                1,
                0,
                0
            ],
            "name" : "color_15277357.003",
            "pbrMetallicRoughness" : {
                "baseColorFactor" : [
                    0.9137254953384399,
                    0.11372549086809158,
                    0.1764705926179886,
                    1
                ],
                "metallicFactor" : 0
            }
        },
        {
            "doubleSided" : true,
            "name" : "color_16448250.003",
            "pbrMetallicRoughness" : {
                "baseColorFactor" : [
                    0.9803921580314636,
                    0.9803921580314636,
                    0.9803921580314636,
                    1
                ],
                "metallicFactor" : 0
            }
        }
    ],
    "meshes" : [
        {
            "name" : "obj_0.003",
            "primitives" : [
                {
                    "attributes" : {
                        "POSITION" : 0,
                        "NORMAL" : 1
                    },
                    "indices" : 2,
                    "material" : 0
                },
                {
                    "attributes" : {
                        "POSITION" : 3,
                        "NORMAL" : 4
                    },
                    "indices" : 5,
                    "material" : 1
                },
                {
                    "attributes" : {
                        "POSITION" : 6,
                        "NORMAL" : 7
                    },
                    "indices" : 8,
                    "material" : 2
                },
                {
                    "attributes" : {
                        "POSITION" : 9,
                        "NORMAL" : 10
                    },
                    "indices" : 11,
                    "material" : 3
                },
                {
                    "attributes" : {
                        "POSITION" : 12,
                        "NORMAL" : 13
                    },
                    "indices" : 14,
                    "material" : 4
                }
            ]
        }
    ],
    "accessors" : [
        {
            "bufferView" : 0,
            "componentType" : 5126,
            "count" : 1130,
            "max" : [
                -297.29998779296875,
                242.5469970703125,
                22.347000122070312
            ],
            "min" : [
                -424.25079345703125,
                63.145999908447266,
                -188.3470001220703
            ],
            "type" : "VEC3"
        },
        {
            "bufferView" : 1,
            "componentType" : 5126,
            "count" : 1130,
            "type" : "VEC3"
        },
        {
            "bufferView" : 2,
            "componentType" : 5123,
            "count" : 4359,
            "type" : "SCALAR"
        },
        {
            "bufferView" : 3,
            "componentType" : 5126,
            "count" : 574,
            "max" : [
                -66,
                496.34698486328125,
                214.3470001220703
            ],
            "min" : [
                -386,
                -93.65299987792969,
                213.3470001220703
            ],
            "type" : "VEC3"
        },
        {
            "bufferView" : 4,
            "componentType" : 5126,
            "count" : 574,
            "type" : "VEC3"
        },
        {
            "bufferView" : 5,
            "componentType" : 5123,
            "count" : 2952,
            "type" : "SCALAR"
        },
        {
            "bufferView" : 6,
            "componentType" : 5126,
            "count" : 1055,
            "max" : [
                -330,
                193.83999633789062,
                211.83999633789062
            ],
            "min" : [
                -430,
                93.83999633789062,
                -188.16000366210938
            ],
            "type" : "VEC3"
        },
        {
            "bufferView" : 7,
            "componentType" : 5126,
            "count" : 1055,
            "type" : "VEC3"
        },
        {
            "bufferView" : 8,
            "componentType" : 5123,
            "count" : 3780,
            "type" : "SCALAR"
        },
        {
            "bufferView" : 9,
            "componentType" : 5126,
            "count" : 5704,
            "max" : [
                -366,
                191.13479614257812,
                -84.42620086669922
            ],
            "min" : [
                -425.28448486328125,
                113.85299682617188,
                -188.3470001220703
            ],
            "type" : "VEC3"
        },
        {
            "bufferView" : 10,
            "componentType" : 5126,
            "count" : 5704,
            "type" : "VEC3"
        },
        {
            "bufferView" : 11,
            "componentType" : 5123,
            "count" : 19017,
            "type" : "SCALAR"
        },
        {
            "bufferView" : 12,
            "componentType" : 5126,
            "count" : 8294,
            "max" : [
                -366.8450012207031,
                183.6199951171875,
                -91.23200225830078
            ],
            "min" : [
                -418.0589904785156,
                117.45700073242188,
                -180.85800170898438
            ],
            "type" : "VEC3"
        },
        {
            "bufferView" : 13,
            "componentType" : 5126,
            "count" : 8294,
            "type" : "VEC3"
        },
        {
            "bufferView" : 14,
            "componentType" : 5123,
            "count" : 34779,
            "type" : "SCALAR"
        }
    ],
    "bufferViews" : [
        {
            "buffer" : 0,
            "byteLength" : 13560,
            "byteOffset" : 0
        },
        {
            "buffer" : 0,
            "byteLength" : 13560,
            "byteOffset" : 13560
        },
        {
            "buffer" : 0,
            "byteLength" : 8718,
            "byteOffset" : 27120
        },
        {
            "buffer" : 0,
            "byteLength" : 6888,
            "byteOffset" : 35840
        },
        {
            "buffer" : 0,
            "byteLength" : 6888,
            "byteOffset" : 42728
        },
        {
            "buffer" : 0,
            "byteLength" : 5904,
            "byteOffset" : 49616
        },
        {
            "buffer" : 0,
            "byteLength" : 12660,
            "byteOffset" : 55520
        },
        {
            "buffer" : 0,
            "byteLength" : 12660,
            "byteOffset" : 68180
        },
        {
            "buffer" : 0,
            "byteLength" : 7560,
            "byteOffset" : 80840
        },
        {
            "buffer" : 0,
            "byteLength" : 68448,
            "byteOffset" : 88400
        },
        {
            "buffer" : 0,
            "byteLength" : 68448,
            "byteOffset" : 156848
        },
        {
            "buffer" : 0,
            "byteLength" : 38034,
            "byteOffset" : 225296
        },
        {
            "buffer" : 0,
            "byteLength" : 99528,
            "byteOffset" : 263332
        },
        {
            "buffer" : 0,
            "byteLength" : 99528,
            "byteOffset" : 362860
        },
        {
            "buffer" : 0,
            "byteLength" : 69558,
            "byteOffset" : 462388
        }
    ],
    "buffers" : [
        {
            "byteLength" : 531948,
            "uri" : "data:application/octet-stream;base64,"
        }
    ]
}
