{"accessors" : [{"bufferView" : 0, "byteOffset" : 0, "componentType" : 5123, "count" : 117, "type" : "SCALAR", "max" : [99], "min" : [0]}, {"bufferView" : 1, "byteOffset" : 0, "componentType" : 5126, "count" : 100, "type" : "VEC3", "max" : [16.299999237060547, -19.899999618530273, 12], "min" : [-6.300000190734863, -46.70000076293945, 0], "name" : "POSITION"}, {"bufferView" : 0, "byteOffset" : 236, "componentType" : 5123, "count" : 612, "type" : "SCALAR", "max" : [531], "min" : [0]}, {"bufferView" : 2, "byteOffset" : 0, "componentType" : 5126, "count" : 532, "type" : "VEC3", "max" : [70, 15, 35], "min" : [-30, -15, 0], "name" : "POSITION"}, {"bufferView" : 0, "byteOffset" : 1460, "componentType" : 5123, "count" : 789, "type" : "SCALAR", "max" : [648], "min" : [0]}, {"bufferView" : 3, "byteOffset" : 0, "componentType" : 5126, "count" : 649, "type" : "VEC3", "max" : [58.900001525878906, 9.5, 29], "min" : [-30, -19.899999618530273, -10], "name" : "POSITION"}], "asset" : {"generator" : "Aspose.3D 22.3", "version" : "2.0"}, "buffers" : [{"uri" : "data:application/octet-stream;base64,", "byteLength" : 21272}], "bufferViews" : [{"buffer" : 0, "byteOffset" : 0, "byteLength" : 3040, "target" : 34963}, {"buffer" : 0, "byteOffset" : 3044, "byteLength" : 1404, "byteStride" : 12, "target" : 34962}, {"buffer" : 0, "byteOffset" : 4452, "byteLength" : 7344, "byteStride" : 12, "target" : 34962}, {"buffer" : 0, "byteOffset" : 11800, "byteLength" : 9468, "byteStride" : 12, "target" : 34962}], "materials" : [{"name" : "color_40919", "pbrMetallicRoughness" : {"baseColorFactor" : [0, 0.6235294117647059, 0.8431372549019608, 1], "metallicFactor" : 0, "roughnessFactor" : 0}, "emissiveFactor" : [0, 0, 0], "alphaMode" : "OPAQUE", "doubleSided" : false}, {"name" : "color_15277357", "pbrMetallicRoughness" : {"baseColorFactor" : [0.9137254901960784, 0.11372549019607843, 0.17647058823529413, 1], "metallicFactor" : 0, "roughnessFactor" : 0}, "emissiveFactor" : [0, 0, 0], "alphaMode" : "OPAQUE", "doubleSided" : false}, {"name" : "color_16448250", "pbrMetallicRoughness" : {"baseColorFactor" : [0.9803921568627451, 0.9803921568627451, 0.9803921568627451, 1], "metallicFactor" : 0, "roughnessFactor" : 0}, "emissiveFactor" : [0, 0, 0], "alphaMode" : "OPAQUE", "doubleSided" : false}], "meshes" : [{"primitives" : [{"attributes" : {"POSITION" : 1}, "indices" : 0, "material" : 0, "mode" : 4}], "name" : ""}, {"primitives" : [{"attributes" : {"POSITION" : 3}, "indices" : 2, "material" : 1, "mode" : 4}], "name" : ""}, {"primitives" : [{"attributes" : {"POSITION" : 5}, "indices" : 4, "material" : 2, "mode" : 4}], "name" : ""}], "nodes" : [{"mesh" : 0, "name" : "group_0_40919"}, {"mesh" : 1, "name" : "group_0_15277357"}, {"mesh" : 2, "name" : "group_0_16448250"}], "scene" : 0, "scenes" : [{"nodes" : [0, 1, 2]}]}