{
    "asset" : {
        "generator" : "Khronos glTF Blender I/O v1.8.19",
        "version" : "2.0"
    },
    "extensionsUsed" : [
        "KHR_lights_punctual"
    ],
    "extensionsRequired" : [
        "KHR_lights_punctual"
    ],
    "extensions" : {
        "KHR_lights_punctual" : {
            "lights" : [
                {
                    "color" : [
                        1,
                        1,
                        1
                    ],
                    "intensity" : 1000,
                    "type" : "point",
                    "name" : "Light"
                }
            ]
        }
    },
    "scene" : 0,
    "scenes" : [
        {
            "name" : "Scene",
            "nodes" : [
                0,
                2,
                3
            ]
        }
    ],
    "nodes" : [
        {
            "name" : "Node_1",
            "rotation" : [
                -0.7071068286895752,
                0,
                0,
                0.7071068286895752
            ]
        },
        {
            "extensions" : {
                "KHR_lights_punctual" : {
                    "light" : 0
                }
            },
            "name" : "Light_Orientation",
            "rotation" : [
                -0.7071067690849304,
                0,
                0,
                0.7071067690849304
            ]
        },
        {
            "children" : [
                1
            ],
            "name" : "Light",
            "rotation" : [
                0.16907575726509094,
                0.7558803558349609,
                -0.27217137813568115,
                0.570947527885437
            ],
            "translation" : [
                4.076245307922363,
                5.903861999511719,
                -1.0054539442062378
            ]
        },
        {
            "mesh" : 0,
            "name" : "obj_0",
            "rotation" : [
                0.7071068286895752,
                0,
                0,
                0.7071067094802856
            ],
            "translation" : [
                350,
                150,
                -200
            ]
        }
    ],
    "materials" : [
        {
            "doubleSided" : true,
            "name" : "color_2829873",
            "pbrMetallicRoughness" : {
                "baseColorFactor" : [
                    0.16862745583057404,
                    0.18039216101169586,
                    0.1921568661928177,
                    1
                ],
                "metallicFactor" : 0
            }
        },
        {
            "doubleSided" : true,
            "name" : "color_4634441",
            "pbrMetallicRoughness" : {
                "baseColorFactor" : [
                    0.27450981736183167,
                    0.7176470756530762,
                    0.2862745225429535,
                    1
                ],
                "metallicFactor" : 0
            }
        },
        {
            "doubleSided" : true,
            "name" : "color_11107152",
            "pbrMetallicRoughness" : {
                "baseColorFactor" : [
                    0.6627451181411743,
                    0.48235294222831726,
                    0.3137255012989044,
                    1
                ],
                "metallicFactor" : 0
            }
        },
        {
            "doubleSided" : true,
            "emissiveFactor" : [
                1,
                0,
                0.004092848859727383
            ],
            "name" : "color_15277357",
            "pbrMetallicRoughness" : {
                "baseColorFactor" : [
                    0.9137254953384399,
                    0.11372549086809158,
                    0.1764705926179886,
                    1
                ],
                "metallicFactor" : 0
            }
        },
        {
            "doubleSided" : true,
            "name" : "color_16448250",
            "pbrMetallicRoughness" : {
                "baseColorFactor" : [
                    0.9803921580314636,
                    0.9803921580314636,
                    0.9803921580314636,
                    1
                ],
                "metallicFactor" : 0
            }
        }
    ],
    "meshes" : [
        {
            "name" : "obj_0",
            "primitives" : [
                {
                    "attributes" : {
                        "POSITION" : 0,
                        "NORMAL" : 1
                    },
                    "indices" : 2,
                    "material" : 0
                },
                {
                    "attributes" : {
                        "POSITION" : 3,
                        "NORMAL" : 4
                    },
                    "indices" : 5,
                    "material" : 1
                },
                {
                    "attributes" : {
                        "POSITION" : 6,
                        "NORMAL" : 7
                    },
                    "indices" : 8,
                    "material" : 2
                },
                {
                    "attributes" : {
                        "POSITION" : 9,
                        "NORMAL" : 10
                    },
                    "indices" : 11,
                    "material" : 3
                },
                {
                    "attributes" : {
                        "POSITION" : 12,
                        "NORMAL" : 13
                    },
                    "indices" : 14,
                    "material" : 4
                }
            ]
        }
    ],
    "accessors" : [
        {
            "bufferView" : 0,
            "componentType" : 5126,
            "count" : 1070,
            "max" : [
                -302.29998779296875,
                298.0469970703125,
                -33.15299987792969
            ],
            "min" : [
                -429.25079345703125,
                118.64600372314453,
                -243.8470001220703
            ],
            "type" : "VEC3"
        },
        {
            "bufferView" : 1,
            "componentType" : 5126,
            "count" : 1070,
            "type" : "VEC3"
        },
        {
            "bufferView" : 2,
            "componentType" : 5123,
            "count" : 4134,
            "type" : "SCALAR"
        },
        {
            "bufferView" : 3,
            "componentType" : 5126,
            "count" : 434,
            "max" : [
                -185,
                440.84698486328125,
                158.8470001220703
            ],
            "min" : [
                -391,
                -38.15299987792969,
                157.8470001220703
            ],
            "type" : "VEC3"
        },
        {
            "bufferView" : 4,
            "componentType" : 5126,
            "count" : 434,
            "type" : "VEC3"
        },
        {
            "bufferView" : 5,
            "componentType" : 5123,
            "count" : 2232,
            "type" : "SCALAR"
        },
        {
            "bufferView" : 6,
            "componentType" : 5126,
            "count" : 1053,
            "max" : [
                -335,
                249.33999633789062,
                156.33999633789062
            ],
            "min" : [
                -435,
                149.33999633789062,
                -243.66000366210938
            ],
            "type" : "VEC3"
        },
        {
            "bufferView" : 7,
            "componentType" : 5126,
            "count" : 1053,
            "type" : "VEC3"
        },
        {
            "bufferView" : 8,
            "componentType" : 5123,
            "count" : 3771,
            "type" : "SCALAR"
        },
        {
            "bufferView" : 9,
            "componentType" : 5126,
            "count" : 3701,
            "max" : [
                -371,
                246.63479614257812,
                -139.9261932373047
            ],
            "min" : [
                -430.28448486328125,
                169.35299682617188,
                -243.8470001220703
            ],
            "type" : "VEC3"
        },
        {
            "bufferView" : 10,
            "componentType" : 5126,
            "count" : 3701,
            "type" : "VEC3"
        },
        {
            "bufferView" : 11,
            "componentType" : 5123,
            "count" : 12150,
            "type" : "SCALAR"
        },
        {
            "bufferView" : 12,
            "componentType" : 5126,
            "count" : 5139,
            "max" : [
                -381.2799987792969,
                243.4857940673828,
                -142.36599731445312
            ],
            "min" : [
                -427.6520080566406,
                172.5919952392578,
                -241.60459899902344
            ],
            "type" : "VEC3"
        },
        {
            "bufferView" : 13,
            "componentType" : 5126,
            "count" : 5139,
            "type" : "VEC3"
        },
        {
            "bufferView" : 14,
            "componentType" : 5123,
            "count" : 20985,
            "type" : "SCALAR"
        }
    ],
    "bufferViews" : [
        {
            "buffer" : 0,
            "byteLength" : 12840,
            "byteOffset" : 0
        },
        {
            "buffer" : 0,
            "byteLength" : 12840,
            "byteOffset" : 12840
        },
        {
            "buffer" : 0,
            "byteLength" : 8268,
            "byteOffset" : 25680
        },
        {
            "buffer" : 0,
            "byteLength" : 5208,
            "byteOffset" : 33948
        },
        {
            "buffer" : 0,
            "byteLength" : 5208,
            "byteOffset" : 39156
        },
        {
            "buffer" : 0,
            "byteLength" : 4464,
            "byteOffset" : 44364
        },
        {
            "buffer" : 0,
            "byteLength" : 12636,
            "byteOffset" : 48828
        },
        {
            "buffer" : 0,
            "byteLength" : 12636,
            "byteOffset" : 61464
        },
        {
            "buffer" : 0,
            "byteLength" : 7542,
            "byteOffset" : 74100
        },
        {
            "buffer" : 0,
            "byteLength" : 44412,
            "byteOffset" : 81644
        },
        {
            "buffer" : 0,
            "byteLength" : 44412,
            "byteOffset" : 126056
        },
        {
            "buffer" : 0,
            "byteLength" : 24300,
            "byteOffset" : 170468
        },
        {
            "buffer" : 0,
            "byteLength" : 61668,
            "byteOffset" : 194768
        },
        {
            "buffer" : 0,
            "byteLength" : 61668,
            "byteOffset" : 256436
        },
        {
            "buffer" : 0,
            "byteLength" : 41970,
            "byteOffset" : 318104
        }
    ],
    "buffers" : [
        {
            "byteLength" : 360076,
            "uri" : "data:application/octet-stream;base64,"
        }
    ]
}
