{"accessors" : [{"bufferView" : 0, "byteOffset" : 0, "componentType" : 5123, "count" : 2679, "type" : "SCALAR", "max" : [2301], "min" : [0]}, {"bufferView" : 1, "byteOffset" : 0, "componentType" : 5126, "count" : 2302, "type" : "VEC3", "max" : [105.3499984741211, 155.62950134277344, 235.70700073242188], "min" : [-22.636499404907227, -54.356998443603516, 69.30699920654297], "name" : "POSITION"}, {"bufferView" : 0, "byteOffset" : 5360, "componentType" : 5123, "count" : 10851, "type" : "SCALAR", "max" : [9848], "min" : [0]}, {"bufferView" : 2, "byteOffset" : 0, "componentType" : 5126, "count" : 9849, "type" : "VEC3", "max" : [38.650001525878906, 155.63150024414062, 198], "min" : [-22.638500213623047, 52.41600036621094, 107.71849822998047], "name" : "POSITION"}, {"bufferView" : 0, "byteOffset" : 27064, "componentType" : 5123, "count" : 25338, "type" : "SCALAR", "max" : [21550], "min" : [0]}, {"bufferView" : 3, "byteOffset" : 0, "componentType" : 5126, "count" : 21551, "type" : "VEC3", "max" : [74.6500015258789, 195.35000610351562, 200], "min" : [-25.350000381469727, -104.6500015258789, 100], "name" : "POSITION"}], "asset" : {"generator" : "Aspose.3D 22.3", "version" : "2.0"}, "buffers" : [{"uri" : "data:application/octet-stream;base64,", "byteLength" : 544172}], "bufferViews" : [{"buffer" : 0, "byteOffset" : 0, "byteLength" : 77740, "target" : 34963}, {"buffer" : 0, "byteOffset" : 77744, "byteLength" : 32148, "byteStride" : 12, "target" : 34962}, {"buffer" : 0, "byteOffset" : 109896, "byteLength" : 130212, "byteStride" : 12, "target" : 34962}, {"buffer" : 0, "byteOffset" : 240112, "byteLength" : 304056, "byteStride" : 12, "target" : 34962}], "materials" : [{"name" : "color_2829873", "pbrMetallicRoughness" : {"baseColorFactor" : [0.16862745098039217, 0.1803921568627451, 0.19215686274509805, 1], "metallicFactor" : 0, "roughnessFactor" : 0}, "emissiveFactor" : [0, 0, 0], "alphaMode" : "OPAQUE", "doubleSided" : false}, {"name" : "color_15277357", "pbrMetallicRoughness" : {"baseColorFactor" : [0.9137254901960784, 0.11372549019607843, 0.17647058823529413, 1], "metallicFactor" : 0, "roughnessFactor" : 0}, "emissiveFactor" : [0, 0, 0], "alphaMode" : "OPAQUE", "doubleSided" : false}, {"name" : "color_16448250", "pbrMetallicRoughness" : {"baseColorFactor" : [0.9803921568627451, 0.9803921568627451, 0.9803921568627451, 1], "metallicFactor" : 0, "roughnessFactor" : 0}, "emissiveFactor" : [0, 0, 0], "alphaMode" : "OPAQUE", "doubleSided" : false}], "meshes" : [{"primitives" : [{"attributes" : {"POSITION" : 1}, "indices" : 0, "material" : 0, "mode" : 4}], "name" : ""}, {"primitives" : [{"attributes" : {"POSITION" : 3}, "indices" : 2, "material" : 1, "mode" : 4}], "name" : ""}, {"primitives" : [{"attributes" : {"POSITION" : 5}, "indices" : 4, "material" : 2, "mode" : 4}], "name" : ""}], "nodes" : [{"mesh" : 0, "name" : "group_0_2829873"}, {"mesh" : 1, "name" : "group_0_15277357"}, {"mesh" : 2, "name" : "group_0_16448250"}], "scene" : 0, "scenes" : [{"nodes" : [0, 1, 2]}]}