{
    "asset" : {
        "generator" : "Khronos glTF Blender I/O v1.8.19",
        "version" : "2.0"
    },
    "extensionsUsed" : [
        "KHR_lights_punctual"
    ],
    "extensionsRequired" : [
        "KHR_lights_punctual"
    ],
    "extensions" : {
        "KHR_lights_punctual" : {
            "lights" : [
                {
                    "color" : [
                        1,
                        1,
                        1
                    ],
                    "intensity" : 1000,
                    "type" : "point",
                    "name" : "Light"
                }
            ]
        }
    },
    "scene" : 0,
    "scenes" : [
        {
            "name" : "Scene",
            "nodes" : [
                0,
                2,
                3
            ]
        }
    ],
    "nodes" : [
        {
            "name" : "Node_1",
            "rotation" : [
                -0.7071068286895752,
                0,
                0,
                0.7071068286895752
            ]
        },
        {
            "extensions" : {
                "KHR_lights_punctual" : {
                    "light" : 0
                }
            },
            "name" : "Light_Orientation",
            "rotation" : [
                -0.7071067690849304,
                0,
                0,
                0.7071067690849304
            ]
        },
        {
            "children" : [
                1
            ],
            "name" : "Light"
        },
        {
            "mesh" : 0,
            "name" : "obj_0.001",
            "rotation" : [
                0.7071068286895752,
                0,
                0,
                0.7071067094802856
            ],
            "translation" : [
                450,
                215,
                -150
            ]
        }
    ],
    "materials" : [
        {
            "doubleSided" : true,
            "name" : "color_2829873.001",
            "pbrMetallicRoughness" : {
                "baseColorFactor" : [
                    0.16862745583057404,
                    0.18039216101169586,
                    0.1921568661928177,
                    1
                ],
                "metallicFactor" : 0
            }
        },
        {
            "doubleSided" : true,
            "name" : "color_4634441.001",
            "pbrMetallicRoughness" : {
                "baseColorFactor" : [
                    0.27450981736183167,
                    0.7176470756530762,
                    0.2862745225429535,
                    1
                ],
                "metallicFactor" : 0
            }
        },
        {
            "doubleSided" : true,
            "name" : "color_11107152.001",
            "pbrMetallicRoughness" : {
                "baseColorFactor" : [
                    0.6627451181411743,
                    0.48235294222831726,
                    0.3137255012989044,
                    1
                ],
                "metallicFactor" : 0
            }
        },
        {
            "doubleSided" : true,
            "emissiveFactor" : [
                1,
                0,
                0
            ],
            "name" : "color_15277357.001",
            "pbrMetallicRoughness" : {
                "baseColorFactor" : [
                    0.9137254953384399,
                    0.11372549086809158,
                    0.1764705926179886,
                    1
                ],
                "metallicFactor" : 0
            }
        },
        {
            "doubleSided" : true,
            "name" : "color_16448250.001",
            "pbrMetallicRoughness" : {
                "baseColorFactor" : [
                    0.9803921580314636,
                    0.9803921580314636,
                    0.9803921580314636,
                    1
                ],
                "metallicFactor" : 0
            }
        }
    ],
    "meshes" : [
        {
            "name" : "obj_0.001",
            "primitives" : [
                {
                    "attributes" : {
                        "POSITION" : 0,
                        "NORMAL" : 1
                    },
                    "indices" : 2,
                    "material" : 0
                },
                {
                    "attributes" : {
                        "POSITION" : 3,
                        "NORMAL" : 4
                    },
                    "indices" : 5,
                    "material" : 1
                },
                {
                    "attributes" : {
                        "POSITION" : 6,
                        "NORMAL" : 7
                    },
                    "indices" : 8,
                    "material" : 2
                },
                {
                    "attributes" : {
                        "POSITION" : 9,
                        "NORMAL" : 10
                    },
                    "indices" : 11,
                    "material" : 3
                },
                {
                    "attributes" : {
                        "POSITION" : 12,
                        "NORMAL" : 13
                    },
                    "indices" : 14,
                    "material" : 4
                }
            ]
        }
    ],
    "accessors" : [
        {
            "bufferView" : 0,
            "componentType" : 5126,
            "count" : 1167,
            "max" : [
                -397.29998779296875,
                242.5469970703125,
                22.347000122070312
            ],
            "min" : [
                -499,
                63.145999908447266,
                -188.3470001220703
            ],
            "type" : "VEC3"
        },
        {
            "bufferView" : 1,
            "componentType" : 5126,
            "count" : 1167,
            "type" : "VEC3"
        },
        {
            "bufferView" : 2,
            "componentType" : 5123,
            "count" : 4749,
            "type" : "SCALAR"
        },
        {
            "bufferView" : 3,
            "componentType" : 5126,
            "count" : 574,
            "max" : [
                -166,
                496.34698486328125,
                214.3470001220703
            ],
            "min" : [
                -486,
                -93.65299987792969,
                213.3470001220703
            ],
            "type" : "VEC3"
        },
        {
            "bufferView" : 4,
            "componentType" : 5126,
            "count" : 574,
            "type" : "VEC3"
        },
        {
            "bufferView" : 5,
            "componentType" : 5123,
            "count" : 2952,
            "type" : "SCALAR"
        },
        {
            "bufferView" : 6,
            "componentType" : 5126,
            "count" : 985,
            "max" : [
                -430,
                193.83999633789062,
                211.83999633789062
            ],
            "min" : [
                -499,
                93.83999633789062,
                -188.16000366210938
            ],
            "type" : "VEC3"
        },
        {
            "bufferView" : 7,
            "componentType" : 5126,
            "count" : 985,
            "type" : "VEC3"
        },
        {
            "bufferView" : 8,
            "componentType" : 5123,
            "count" : 3474,
            "type" : "SCALAR"
        },
        {
            "bufferView" : 9,
            "componentType" : 5126,
            "count" : 2761,
            "max" : [
                -466,
                191.13479614257812,
                -84.42620086669922
            ],
            "min" : [
                -498.9989929199219,
                113.85299682617188,
                -188.3470001220703
            ],
            "type" : "VEC3"
        },
        {
            "bufferView" : 10,
            "componentType" : 5126,
            "count" : 2761,
            "type" : "VEC3"
        },
        {
            "bufferView" : 11,
            "componentType" : 5123,
            "count" : 9279,
            "type" : "SCALAR"
        },
        {
            "bufferView" : 12,
            "componentType" : 5126,
            "count" : 4187,
            "max" : [
                -466.8450012207031,
                183.6199951171875,
                -91.23200225830078
            ],
            "min" : [
                -497.75,
                121.78700256347656,
                -180.85800170898438
            ],
            "type" : "VEC3"
        },
        {
            "bufferView" : 13,
            "componentType" : 5126,
            "count" : 4187,
            "type" : "VEC3"
        },
        {
            "bufferView" : 14,
            "componentType" : 5123,
            "count" : 17793,
            "type" : "SCALAR"
        }
    ],
    "bufferViews" : [
        {
            "buffer" : 0,
            "byteLength" : 14004,
            "byteOffset" : 0
        },
        {
            "buffer" : 0,
            "byteLength" : 14004,
            "byteOffset" : 14004
        },
        {
            "buffer" : 0,
            "byteLength" : 9498,
            "byteOffset" : 28008
        },
        {
            "buffer" : 0,
            "byteLength" : 6888,
            "byteOffset" : 37508
        },
        {
            "buffer" : 0,
            "byteLength" : 6888,
            "byteOffset" : 44396
        },
        {
            "buffer" : 0,
            "byteLength" : 5904,
            "byteOffset" : 51284
        },
        {
            "buffer" : 0,
            "byteLength" : 11820,
            "byteOffset" : 57188
        },
        {
            "buffer" : 0,
            "byteLength" : 11820,
            "byteOffset" : 69008
        },
        {
            "buffer" : 0,
            "byteLength" : 6948,
            "byteOffset" : 80828
        },
        {
            "buffer" : 0,
            "byteLength" : 33132,
            "byteOffset" : 87776
        },
        {
            "buffer" : 0,
            "byteLength" : 33132,
            "byteOffset" : 120908
        },
        {
            "buffer" : 0,
            "byteLength" : 18558,
            "byteOffset" : 154040
        },
        {
            "buffer" : 0,
            "byteLength" : 50244,
            "byteOffset" : 172600
        },
        {
            "buffer" : 0,
            "byteLength" : 50244,
            "byteOffset" : 222844
        },
        {
            "buffer" : 0,
            "byteLength" : 35586,
            "byteOffset" : 273088
        }
    ],
    "buffers" : [
        {
            "byteLength" : 308676,
            "uri" : "data:application/octet-stream;base64,"
        }
    ]
}
