{"accessors" : [{"bufferView" : 0, "byteOffset" : 0, "componentType" : 5123, "count" : 1764, "type" : "SCALAR", "max" : [1443], "min" : [0]}, {"bufferView" : 1, "byteOffset" : 0, "componentType" : 5126, "count" : 1444, "type" : "VEC3", "max" : [90, 80, 300], "min" : [-10, -20, 0], "name" : "POSITION"}], "asset" : {"generator" : "Aspose.3D 22.3", "version" : "2.0"}, "buffers" : [{"uri" : "data:application/octet-stream;base64,", "byteLength" : 24704}], "bufferViews" : [{"buffer" : 0, "byteOffset" : 0, "byteLength" : 3528, "target" : 34963}, {"buffer" : 0, "byteOffset" : 3532, "byteLength" : 21168, "byteStride" : 12, "target" : 34962}], "materials" : [{"name" : "color_11107152", "pbrMetallicRoughness" : {"baseColorFactor" : [0.6627450980392157, 0.4823529411764706, 0.3137254901960784, 1], "metallicFactor" : 0, "roughnessFactor" : 0}, "emissiveFactor" : [0, 0, 0], "alphaMode" : "OPAQUE", "doubleSided" : false}], "meshes" : [{"primitives" : [{"attributes" : {"POSITION" : 1}, "indices" : 0, "material" : 0, "mode" : 4}], "name" : ""}], "nodes" : [{"mesh" : 0, "name" : "group_0_11107152"}], "scene" : 0, "scenes" : [{"nodes" : [0]}]}