{"accessors" : [{"bufferView" : 0, "byteOffset" : 0, "componentType" : 5123, "count" : 11103, "type" : "SCALAR", "max" : [10010], "min" : [0]}, {"bufferView" : 1, "byteOffset" : 0, "componentType" : 5126, "count" : 10011, "type" : "VEC3", "max" : [32.933998107910156, 44, 198], "min" : [-70.28150177001953, -17.28849983215332, 107.71849822998047], "name" : "POSITION"}, {"bufferView" : 0, "byteOffset" : 22208, "componentType" : 5123, "count" : 25815, "type" : "SCALAR", "max" : [21871], "min" : [0]}, {"bufferView" : 2, "byteOffset" : 0, "componentType" : 5126, "count" : 21872, "type" : "VEC3", "max" : [190, 80, 200], "min" : [-110, -20, 100], "name" : "POSITION"}], "asset" : {"generator" : "Aspose.3D 22.3", "version" : "2.0"}, "buffers" : [{"uri" : "data:application/octet-stream;base64,", "byteLength" : 516868}], "bufferViews" : [{"buffer" : 0, "byteOffset" : 0, "byteLength" : 73840, "target" : 34963}, {"buffer" : 0, "byteOffset" : 73844, "byteLength" : 133236, "byteStride" : 12, "target" : 34962}, {"buffer" : 0, "byteOffset" : 207084, "byteLength" : 309780, "byteStride" : 12, "target" : 34962}], "materials" : [{"name" : "color_15277357", "pbrMetallicRoughness" : {"baseColorFactor" : [0.9137254901960784, 0.11372549019607843, 0.17647058823529413, 1], "metallicFactor" : 0, "roughnessFactor" : 0}, "emissiveFactor" : [0, 0, 0], "alphaMode" : "OPAQUE", "doubleSided" : false}, {"name" : "color_16448250", "pbrMetallicRoughness" : {"baseColorFactor" : [0.9803921568627451, 0.9803921568627451, 0.9803921568627451, 1], "metallicFactor" : 0, "roughnessFactor" : 0}, "emissiveFactor" : [0, 0, 0], "alphaMode" : "OPAQUE", "doubleSided" : false}], "meshes" : [{"primitives" : [{"attributes" : {"POSITION" : 1}, "indices" : 0, "material" : 0, "mode" : 4}], "name" : ""}, {"primitives" : [{"attributes" : {"POSITION" : 3}, "indices" : 2, "material" : 1, "mode" : 4}], "name" : ""}], "nodes" : [{"mesh" : 0, "name" : "group_0_15277357"}, {"mesh" : 1, "name" : "group_0_16448250"}], "scene" : 0, "scenes" : [{"nodes" : [0, 1]}]}